<svg xmlns="http://www.w3.org/2000/svg" xmlns:xlink="http://www.w3.org/1999/xlink" width="666" height="666"><defs><radialGradient xlink:href="#a" id="g" cx="-177.231" cy="928.254" fx="-177.231" fy="928.254" r="28.529" gradientUnits="userSpaceOnUse" gradientTransform="rotate(45 -224.86 852.004) scale(1.11569 1.08248)"/><linearGradient id="a"><stop offset="0" stop-color="#c0c0dc"/><stop offset=".114" stop-color="#c0c0dd"/><stop offset=".479" stop-color="#a191bf"/><stop offset="1" stop-color="#625681"/></linearGradient><linearGradient gradientUnits="userSpaceOnUse" y2="951.898" x2="46.893" y1="934.566" x1="-.654" id="h" xlink:href="#b" gradientTransform="translate(7.567 560.782) scale(.48871)"/><linearGradient id="b"><stop offset="0" stop-color="#eeeeec"/><stop offset=".084" stop-color="#eeeeec"/><stop offset=".351" stop-color="#eeeeec"/><stop offset="1" stop-color="#e0d5d5"/></linearGradient><linearGradient gradientTransform="matrix(.1923 .06206 -.10032 .17024 27.948 914.552)" gradientUnits="userSpaceOnUse" y2="672.258" x2="396.91" y1="608.878" x1="303.644" id="i" xlink:href="#c"/><linearGradient id="c"><stop offset="0" stop-color="#351347"/><stop offset="1" stop-color="#5c3566" stop-opacity="0"/></linearGradient><linearGradient gradientTransform="matrix(.07485 .08932 -.08627 .06221 53.223 961.644)" gradientUnits="userSpaceOnUse" y2="364.663" x2="377.032" y1="425.158" x1="306.884" id="j" xlink:href="#d"/><linearGradient id="d"><stop offset="0" stop-color="#351e47"/><stop offset="1" stop-color="#5c3566" stop-opacity="0"/></linearGradient><linearGradient gradientTransform="rotate(5.407 -10079.793 342.15) scale(.15221)" gradientUnits="userSpaceOnUse" y2="429.496" x2="329.167" y1="527.335" x1="267.654" id="k" xlink:href="#b"/><linearGradient gradientTransform="matrix(-.13467 .03941 .04093 .13986 58.64 937.7)" gradientUnits="userSpaceOnUse" y2="465.961" x2="190.849" y1="511.441" x1="308.41" id="l" xlink:href="#e"/><linearGradient id="e"><stop offset="0" stop-color="#fff"/><stop offset=".114" stop-color="#fffff2"/><stop offset=".479" stop-color="#d2acd2"/><stop offset="1" stop-color="#123069"/></linearGradient><linearGradient id="f"><stop offset="0" stop-color="#c2c6db"/><stop offset=".34" stop-color="#bab1e0"/><stop offset=".444" stop-color="#8d77a3"/><stop offset=".552" stop-color="#675a84"/><stop offset="1" stop-color="#050846"/></linearGradient><radialGradient gradientTransform="matrix(.3533 .2238 -.2052 .28121 -702.276 -398.303)" gradientUnits="userSpaceOnUse" r="169" fy="472.517" fx="322.171" cy="472.517" cx="322.171" id="m" xlink:href="#f"/><radialGradient gradientTransform="matrix(.19829 .10913 -.11516 .13713 -658.03 -481.713)" gradientUnits="userSpaceOnUse" r="169" fy="472.517" fx="322.171" cy="472.517" cx="322.171" id="p" xlink:href="#f"/><radialGradient gradientTransform="matrix(.14185 .08187 -.08238 .10288 -643.982 -766.017)" gradientUnits="userSpaceOnUse" r="169" fy="472.517" fx="322.171" cy="472.517" cx="322.171" id="q" xlink:href="#f"/><radialGradient gradientTransform="matrix(.35 .21378 -.20327 .26862 -680.607 -453.663)" gradientUnits="userSpaceOnUse" r="169" fy="472.517" fx="322.171" cy="472.517" cx="322.171" id="n" xlink:href="#f"/><radialGradient gradientTransform="matrix(.19224 .10084 -.11165 .12671 -724.74 -701.333)" gradientUnits="userSpaceOnUse" r="169" fy="472.517" fx="322.171" cy="472.517" cx="322.171" id="o" xlink:href="#f"/></defs><g transform="rotate(19.197 41366.164 6798.251) scale(13.72223)" color="#000"><circle style="isolation:auto;mix-blend-mode:normal;solid-color:#000;solid-opacity:1;marker:none" cx="-306.258" cy="988.651" r="23.14" transform="rotate(-19.197)" overflow="visible" fill="url(#g)"/><path d="M41.747 1025.804c14.52 9.845 9.409 4.918 10.261 11.096a4.55 4.55 0 0 1-.264.423l-.037-.04c-.01-.012-.022-.019-.032-.029.02-.032.04-.064.058-.097-1.225-5.073 2.687-1.119-11.157-10.215-9.051-5.948-16.352-7.226-22.551-7.402-3.489-.1-5.914.872-6.988 2.799-1.342 2.417-.913 3.815 1.994 8.252-.091.326-.033.494-.142.872-3.852-5.387-5.017-9.797-3.447-12.671.994-1.807 2.71-2.603 5.693-2.757 9.218-.206 20.202 5.506 26.612 9.769z" style="isolation:auto;mix-blend-mode:normal;solid-color:#000;solid-opacity:1;marker:none" overflow="visible" fill="url(#h)"/><path style="isolation:auto;mix-blend-mode:normal;solid-color:#000;solid-opacity:1;marker:none" d="M14.996 1029.214c-.237-.285-.56-.78-.486-.78.2-.001 9.609 5.745 9.93 5.933 4.225 4.064 7.676 7.895 11.373 12.23 2.765 3.27 7.591 9.084 9.009 9.981.059.037.112.068.16.093-2.112.19-14.248-3.148-14.248-3.148-3.978-8.243-8.504-15.157-15.738-24.308z" overflow="visible" opacity=".8" fill="url(#i)"/><path d="M39.507 1015.494c.26.16 1.279 1.496 1.492 1.646.545.384.645.474 1.559.91 2.376 1.136 6.504 2.72 6.504 2.72s2.63.9 3.272 1.11c-1.71-.945-3.398-2.61-5.937-4.017-2.625-.38-5.293-1.749-6.89-2.375 0 0 .005.023 0 0z" style="isolation:auto;mix-blend-mode:normal;solid-color:#000;solid-opacity:1;marker:none" overflow="visible" opacity=".8" fill="url(#j)"/><path d="M36.624 1014.702c.193-.02 2.51 1.158 3.41 1.739 1.578 1.017 2.284 1.682 3.53 3.325 3.24 4.273 5.638 7.842 8.06 11.999 1.215 2.085 3.422 5.87 3.795 6.611.049.101.065.24.073.267a11.069 11.069 0 0 0-.695-.297c-1.536-.625-4.405-1.362-7.139-1.834-3.412-.588-6.703-.962-13.983-1.589-6.645-.572-9.72-.876-12.163-1.2l-2.24-.286-2.354-2.612c-1.465-1.453-2.67-2.665-2.678-2.694-.008-.028.333.131.759.356 4.756 2.505 13.315 3.302 21.664 2.019 2.97-.457 6.369-1.637 7.5-2.262.219-.12.381-.214.465-.284h.007c.002-.092-.01-.19-.019-.266-.351-3.427-3.893-9.346-7.415-12.391-.342-.296-.607-.564-.59-.595h.013z" style="isolation:auto;mix-blend-mode:normal;solid-color:#000;solid-opacity:1;marker:none" overflow="visible" fill="url(#k)"/><path d="M36.461 1014.665c.192-.016 3.777.961 4.167 1.319 1 .913 1.69 1.704 2.94 3.395 4.363 5.946 8.136 12.274 11.647 18.748-2.437-3.366-6.107-6.713-10.58-10.168-.001-.02 0-.075-.003-.115-.383-3.505-3.996-9.322-7.512-12.47-.341-.305-.688-.671-.67-.703h.011z" style="isolation:auto;mix-blend-mode:normal;solid-color:#000;solid-opacity:1;marker:none" overflow="visible" fill="url(#l)"/></g><g opacity=".488" color="#000"><ellipse style="isolation:auto;mix-blend-mode:normal;solid-color:#000;solid-opacity:1;marker:none" cx="-674.759" cy="-183.952" rx="33.303" ry="31.029" transform="matrix(-.46578 -.8849 .9494 .31406 0 0)" overflow="visible" opacity=".245" fill="url(#m)"/><ellipse style="isolation:auto;mix-blend-mode:normal;solid-color:#000;solid-opacity:1;marker:none" cx="-653.359" cy="-248.919" rx="32.991" ry="29.64" transform="matrix(-.79747 -.60336 .73433 -.6788 0 0)" overflow="visible" opacity=".245" fill="url(#n)"/><ellipse style="isolation:auto;mix-blend-mode:normal;solid-color:#000;solid-opacity:1;marker:none" cx="-709.774" cy="-604.747" rx="18.12" ry="13.981" transform="matrix(-.99992 .01298 .35377 -.93533 0 0)" overflow="visible" opacity=".245" fill="url(#o)"/><ellipse style="isolation:auto;mix-blend-mode:normal;solid-color:#000;solid-opacity:1;marker:none" cx="-642.594" cy="-377.192" rx="18.691" ry="15.131" transform="matrix(-.8287 -.55969 .78596 -.61828 0 0)" overflow="visible" opacity=".245" fill="url(#p)"/><ellipse style="isolation:auto;mix-blend-mode:normal;solid-color:#000;solid-opacity:1;marker:none" cx="-632.937" cy="-687.596" rx="13.371" ry="11.352" transform="matrix(-.99901 .0445 .34687 -.93791 0 0)" overflow="visible" opacity=".245" fill="url(#q)"/></g></svg>